<svg width="26" height="30" viewBox="0 0 26 30" fill="none" xmlns="http://www.w3.org/2000/svg">
<path d="M1 6.99999L5 1.66666H21L25 6.99999M1 6.99999V25.6667C1 26.3739 1.28095 27.0522 1.78105 27.5523C2.28115 28.0524 2.95942 28.3333 3.66667 28.3333H22.3333C23.0406 28.3333 23.7189 28.0524 24.219 27.5523C24.719 27.0522 25 26.3739 25 25.6667V6.99999M1 6.99999H25M18.3333 12.3333C18.3333 13.7478 17.7714 15.1044 16.7712 16.1046C15.771 17.1048 14.4145 17.6667 13 17.6667C11.5855 17.6667 10.229 17.1048 9.22876 16.1046C8.22857 15.1044 7.66667 13.7478 7.66667 12.3333" stroke="#342D1F" stroke-width="2" stroke-linecap="round" stroke-linejoin="round"/>
</svg>
